PathFileType	4	(x/y/z)	S05_M20_T11
DataRate	CameraRate	NumFrames	NumMarkers	Units	OrigDataRate	OrigDataStartFrame	OrigNumFrames
240	240	9	50	mm	240	319	510
Frame#	Time	Sternum			R.Acromium			L.Acromium			Top.Head			R.ASIS			L.ASIS			R.PSIS			L.PSIS			R.Great.Tro			L.Great.Tro			R.Iliac.Crest			L.Iliac.Crest			V.Sacral			R.Thigh.Upper.Post			R.Thigh.Lower.Ant			R.Thigh.Lower.Post			R.Thigh.Upper.Ant			R.Knee.Lat			R.Knee.Med			R.Shank.Upper.Post			R.Shank.Lower.Ant			R.Shank.Lower.Post			R.Shank.Upper.Ant			R.Ankle.Lat			R.Ankle.Med			R.Heel.Upper			R.Heel.Med			R.Heel.Lat			R.Toe.Lat			R.Toe.Med			R.Toe.Tip			L.Thigh.Upper.Post			L.Thigh.Lower.Ant			L.Thigh.Lower.Post			L.Thigh.Upper.Ant			L.Knee.Lat			L.Shank.Upper.Post			L.Shank.Lower.Ant			L.Shank.Lower.Post			L.Shank.Upper.Ant			L.Ankle.Lat			L.Ankle.Med			L.Heel.Upper			L.Heel.Med			L.Heel.Lat			L.Toe.Lat			L.Toe.Med			L.Toe.Tip			Cervical.Spine			Back			
		X1	Y1	Z1	X2	Y2	Z2	X3	Y3	Z3	X4	Y4	Z4	X5	Y5	Z5	X6	Y6	Z6	X7	Y7	Z7	X8	Y8	Z8	X9	Y9	Z9	X10	Y10	Z10	X11	Y11	Z11	X12	Y12	Z12	X13	Y13	Z13	X14	Y14	Z14	X15	Y15	Z15	X16	Y16	Z16	X17	Y17	Z17	X18	Y18	Z18	X19	Y19	Z19	X20	Y20	Z20	X21	Y21	Z21	X22	Y22	Z22	X23	Y23	Z23	X24	Y24	Z24	X25	Y25	Z25	X26	Y26	Z26	X27	Y27	Z27	X28	Y28	Z28	X29	Y29	Z29	X30	Y30	Z30	X31	Y31	Z31	X32	Y32	Z32	X33	Y33	Z33	X34	Y34	Z34	X35	Y35	Z35	X36	Y36	Z36	X37	Y37	Z37	X38	Y38	Z38	X39	Y39	Z39	X40	Y40	Z40	X41	Y41	Z41	X42	Y42	Z42	X43	Y43	Z43	X44	Y44	Z44	X45	Y45	Z45	X46	Y46	Z46	X47	Y47	Z47	X48	Y48	Z48	X49	Y49	Z49	X50	Y50	Z50	

319	1.325	869.87	1215.2	373.44	767.18	1481.7	512.16	792.04	1483.4	178.7	777.16	1777.4	328.14	781.7	965.24	507.5	829.61	962.31	261.29	602.45	992.54	381.37	621.12	983.66	291.46	674.6	900.65	551.99	767.86	886.99	165.44	694.47	1058.1	525.19	747.75	1037	192.75	593.73	956.29	348.6	664.32	669.05	539.17	696.77	584.29	491.36	627.37	590.21	512.66	730.13	663.27	519.5	583.6	504.45	490.68	594.04	491.34	356.69	416.73	309.86	468.97	449.63	225.6	463.04	388.84	241	447.2	479.67	295.39	481.59	388.58	139.93	442.38	419.66	161.62	353.99	310.01	100.26	378.46	315.56	64.73	352.81	310.6	74.211	417.4	468.97	39.514	481.53	510.63	35.354	363.71	573.18	45.317	412.28	873.49	669.39	169.56	972.93	640.77	208.77	924.29	590.71	188.52	929.46	719.74	193.33	979.06	525.77	197.4	1037.3	324.31	191.68	1126	316.07	191.95	1078.6	264.8	209.88	1082.8	371.67	181.62	1188.1	174.06	211.26	1212.4	207.84	295.34	1183	93.911	267.54	1209.4	85.55	300.42	1204.3	73.454	241.05	1340.5	187.1	175.96	1351.2	220.68	291.4	1388.5	268.97	233.72	729.34	1521.8	348.47	606.88	1247.3	342.23
320	1.3292	876.02	1213.9	373.03	773.5	1480.6	511.4	798.59	1481.9	177.92	783.16	1776.2	326.89	787.45	964.19	507.35	836.11	961.25	261.27	608.56	991.53	380.65	627.49	982.55	290.8	679.9	899.92	551.52	774.73	886.25	165.27	700.2	1057.1	524.69	754.3	1035.8	192.43	599.92	955.26	347.89	668.68	668.51	539.12	700.95	583.49	491.58	631.52	589.75	512.68	734.55	662.4	519.73	587.35	504.16	490.7	598.21	490.76	356.8	419.07	310.8	468.88	451.33	226.27	463.08	390.65	242.16	447.11	481.87	295.83	481.64	389.57	141.05	442.39	421	162.43	354.06	310.8	102.03	378.46	316.08	66.483	352.77	311.18	75.888	417.39	469.13	39.644	481.56	510.82	35.392	363.76	573.35	45.105	412.37	881.14	669.15	169.57	980.51	640.78	209.16	932.11	590.59	188.6	936.85	719.65	193.68	986.68	525.49	197.31	1043.1	323.49	191.25	1131.7	314.3	191.87	1083.7	263.53	209.4	1089.1	370.36	181.52	1192.1	171.71	210.99	1216.4	204.99	295.24	1186.2	91.312	266.99	1212.6	82.655	299.95	1207.4	70.85	240.45	1344.5	183.76	176.04	1355.2	216.82	291.6	1393	265.06	234.16	735.76	1520.7	347.64	613.04	1246.3	341.59
321	1.3333	882.22	1212.6	372.6	779.86	1479.6	510.62	805.15	1480.5	177.13	789.19	1775	325.62	793.25	963.17	507.18	842.69	960.22	261.26	614.75	990.55	379.88	633.95	981.48	290.1	685.25	899.23	551.03	781.69	885.52	165.1	705.98	1056.2	524.17	760.93	1034.6	192.1	606.19	954.26	347.12	673.11	668.01	539.07	705.19	582.73	491.84	635.73	589.34	512.7	739.02	661.56	519.98	591.16	503.9	490.73	602.48	490.2	356.93	421.48	311.81	468.78	453.07	227.01	463.14	392.53	243.38	447.01	484.12	296.33	481.68	390.62	142.25	442.4	422.41	163.3	354.15	311.65	103.91	378.47	316.64	68.343	352.73	311.82	77.662	417.38	469.29	39.79	481.59	511.02	35.429	363.82	573.52	44.898	412.45	888.75	668.85	169.58	988.04	640.68	209.53	939.85	590.39	188.7	944.22	719.47	194.01	994.22	525.12	197.26	1048.7	322.58	190.84	1137.1	312.39	191.82	1088.6	262.15	208.94	1095.2	368.93	181.45	1195.9	169.2	210.75	1220.2	201.98	295.16	1189	88.576	266.46	1215.5	79.614	299.5	1210.1	68.105	239.86	1348.2	180.2	176.15	1359	212.73	291.85	1397.3	260.9	234.64	742.21	1519.6	346.79	619.25	1245.4	340.95
322	1.3375	888.47	1211.4	372.16	786.26	1478.6	509.83	811.72	1479.1	176.32	795.23	1773.8	324.33	799.1	962.19	507.02	849.35	959.21	261.26	621.01	989.6	379.06	640.49	980.43	289.36	690.66	898.57	550.51	788.73	884.78	164.92	711.79	1055.3	523.63	767.67	1033.5	191.75	612.54	953.28	346.32	677.59	667.55	539.01	709.5	582	492.11	640.01	588.96	512.73	743.55	660.77	520.24	595.04	503.69	490.76	606.84	489.66	357.08	423.96	312.88	468.68	454.88	227.81	463.2	394.48	244.68	446.91	486.44	296.9	481.74	391.72	143.52	442.41	423.89	164.22	354.26	312.57	105.9	378.48	317.26	70.312	352.69	312.5	79.536	417.37	469.47	39.953	481.62	511.23	35.467	363.88	573.7	44.696	412.54	896.31	668.48	169.61	995.52	640.46	209.88	947.49	590.1	188.8	951.59	719.18	194.31	1001.7	524.66	197.22	1054.1	321.57	190.46	1142.4	310.34	191.81	1093.2	260.66	208.5	1101.2	367.37	181.41	1199.4	166.54	210.54	1223.7	198.81	295.11	1191.6	85.727	265.97	1218.1	76.449	299.07	1212.5	65.242	239.29	1351.7	176.43	176.31	1362.6	208.43	292.12	1401.3	256.5	235.16	748.68	1518.5	345.93	625.51	1244.4	340.29
323	1.3417	894.77	1210.2	371.71	792.7	1477.6	509.03	818.3	1477.8	175.49	801.3	1772.6	323.02	805.01	961.24	506.84	856.1	958.24	261.25	627.36	988.67	378.21	647.13	979.42	288.58	696.13	897.94	549.96	795.87	884.04	164.74	717.65	1054.4	523.06	774.5	1032.4	191.4	618.98	952.34	345.46	682.14	667.12	538.96	713.88	581.32	492.42	644.36	588.63	512.76	748.15	660.01	520.51	599	503.51	490.8	611.31	489.13	357.24	426.51	314.02	468.57	456.76	228.68	463.28	396.5	246.04	446.8	488.83	297.53	481.81	392.87	144.86	442.43	425.44	165.2	354.38	313.56	107.99	378.5	317.93	72.393	352.65	313.25	81.512	417.35	469.66	40.132	481.66	511.44	35.502	363.95	573.87	44.5	412.61	903.8	668.04	169.64	1002.9	640.11	210.2	955.03	589.7	188.91	958.95	718.79	194.58	1009	524.1	197.21	1059.3	320.46	190.11	1147.5	308.17	191.84	1097.7	259.06	208.09	1107	365.7	181.39	1202.7	163.76	210.37	1227	195.5	295.09	1193.9	82.79	265.52	1220.4	73.188	298.67	1214.6	62.287	238.74	1354.9	172.47	176.51	1365.9	203.95	292.45	1405.1	251.89	235.73	755.17	1517.5	345.06	631.82	1243.5	339.62
324	1.3458	901.13	1209.1	371.25	799.18	1476.7	508.2	824.88	1476.5	174.66	807.38	1771.5	321.69	810.98	960.33	506.66	862.93	957.3	261.24	633.8	987.77	377.31	653.85	978.44	287.76	701.67	897.34	549.4	803.08	883.3	164.55	723.56	1053.5	522.47	781.43	1031.3	191.04	625.51	951.42	344.57	686.77	666.74	538.9	718.35	580.66	492.74	648.78	588.33	512.79	752.82	659.29	520.79	603.05	503.37	490.85	615.88	488.61	357.42	429.14	315.22	468.45	458.7	229.62	463.36	398.6	247.47	446.69	491.28	298.21	481.89	394.1	146.28	442.44	427.07	166.24	354.51	314.63	110.2	378.51	318.68	74.587	352.6	314.06	83.593	417.33	469.86	40.331	481.7	511.66	35.537	364.02	574.05	44.311	412.68	911.23	667.51	169.67	1010.3	639.61	210.49	962.46	589.18	189.03	966.28	718.29	194.8	1016.2	523.44	197.23	1064.4	319.26	189.79	1152.4	305.88	191.9	1101.9	257.37	207.72	1112.6	363.92	181.42	1205.7	160.87	210.24	1230	192.09	295.1	1196	79.794	265.11	1222.5	69.856	298.31	1216.4	59.268	238.22	1357.9	168.35	176.75	1369	199.3	292.81	1408.7	247.11	236.35	761.68	1516.5	344.18	638.19	1242.6	338.93
325	1.35	907.54	1208.1	370.78	805.69	1475.8	507.37	831.47	1475.3	173.8	813.48	1770.4	320.34	817.02	959.45	506.47	869.85	956.39	261.22	640.32	986.9	376.38	660.67	977.5	286.9	707.28	896.77	548.8	810.38	882.54	164.36	729.51	1052.7	521.85	788.46	1030.3	190.67	632.12	950.54	343.63	691.47	666.39	538.84	722.89	580.04	493.09	653.28	588.06	512.83	757.56	658.6	521.07	607.19	503.25	490.91	620.57	488.1	357.61	431.86	316.49	468.33	460.71	230.62	463.45	400.78	248.97	446.57	493.81	298.96	481.98	395.39	147.77	442.47	428.78	167.33	354.66	315.78	112.51	378.52	319.49	76.897	352.55	314.94	85.78	417.3	470.08	40.549	481.74	511.9	35.569	364.09	574.22	44.129	412.75	918.59	666.9	169.7	1017.5	638.98	210.74	969.77	588.56	189.15	973.59	717.66	194.98	1023.3	522.67	197.27	1069.2	317.96	189.53	1157.1	303.48	192.02	1105.9	255.59	207.4	1118.1	362.04	181.47	1208.6	157.89	210.15	1232.9	188.58	295.15	1197.9	76.769	264.75	1224.3	66.484	297.98	1218	56.213	237.72	1360.8	164.1	177.03	1371.8	194.5	293.22	1412.1	242.15	237.01	768.2	1515.6	343.27	644.61	1241.7	338.23
326	1.3542	914.02	1207.1	370.3	812.22	1475	506.52	838.06	1474.1	172.94	819.61	1769.4	318.97	823.12	958.61	506.27	876.84	955.51	261.2	646.92	986.06	375.41	667.57	976.6	286.01	712.96	896.23	548.19	817.76	881.78	164.16	735.53	1051.9	521.21	795.59	1029.3	190.28	638.83	949.68	342.65	696.26	666.07	538.78	727.53	579.46	493.45	657.88	587.83	512.87	762.4	657.95	521.37	611.42	503.17	490.98	625.38	487.6	357.83	434.66	317.82	468.21	462.81	231.68	463.54	403.05	250.54	446.44	496.42	299.77	482.08	396.76	149.33	442.49	430.58	168.48	354.83	317.03	114.94	378.53	320.38	79.324	352.49	315.89	88.075	417.26	470.31	40.787	481.78	512.14	35.601	364.16	574.4	43.955	412.81	925.87	666.2	169.73	1024.7	638.2	210.96	976.95	587.82	189.27	980.88	716.92	195.12	1030.3	521.8	197.34	1074	316.57	189.33	1161.6	300.99	192.17	1109.8	253.73	207.13	1123.4	360.06	181.57	1211.2	154.84	210.1	1235.6	185	295.23	1199.5	73.748	264.43	1225.8	63.101	297.69	1219.3	53.155	237.27	1363.4	159.72	177.35	1374.5	189.59	293.67	1415.4	237.06	237.71	774.73	1514.7	342.36	651.09	1240.9	337.5
327	1.3583	920.57	1206.2	369.82	818.79	1474.2	505.65	844.66	1473	172.05	825.76	1768.4	317.58	829.3	957.8	506.06	883.92	954.65	261.16	653.62	985.25	374.4	674.56	975.73	285.08	718.73	895.71	547.56	825.21	881.02	163.95	741.6	1051.2	520.55	802.82	1028.4	189.88	645.63	948.86	341.64	701.13	665.79	538.72	732.26	578.9	493.83	662.57	587.62	512.9	767.32	657.34	521.67	615.77	503.12	491.05	630.31	487.1	358.07	437.57	319.2	468.07	464.99	232.81	463.65	405.42	252.17	446.31	499.12	300.63	482.19	398.21	150.96	442.51	432.46	169.68	355.01	318.38	117.48	378.54	321.35	81.87	352.43	316.93	90.481	417.2	470.56	41.047	481.82	512.39	35.631	364.24	574.57	43.788	412.86	933.06	665.43	169.75	1031.8	637.27	211.14	983.99	586.97	189.38	988.13	716.06	195.19	1037.1	520.82	197.42	1078.5	315.1	189.18	1165.9	298.42	192.37	1113.5	251.8	206.91	1128.5	358	181.71	1213.8	151.74	210.09	1238.1	181.37	295.36	1201	70.765	264.17	1227.2	59.741	297.45	1220.5	50.123	236.85	1365.9	155.26	177.72	1377.1	184.59	294.16	1418.5	231.86	238.46	781.27	1513.8	341.42	657.64	1240	336.77
